<svg width="96" height="96" xmlns="http://www.w3.org/2000/svg" xmlns:xlink="http://www.w3.org/1999/xlink" xml:space="preserve" overflow="hidden"><defs><clipPath id="clip0"><rect x="592" y="312" width="96" height="96"/></clipPath></defs><g clip-path="url(#clip0)" transform="translate(-592 -312)"><path d="M611.7 365C611.2 365.3 610.6 365.7 610.1 366 607.7 367.8 606.1 370.5 605.7 373.5L603.9 395.5 605.5 396C606 396.2 619.2 400 640.1 400 661 400 674.1 396.2 674.7 396L676.3 395.5 674.6 373.7 674.6 373.5C674.1 370.6 672.5 367.9 670.2 366.1 667.4 364 664.4 362.2 661.1 360.9 662.5 357.9 661.3 354.3 658.4 352.8 665.7 342.8 663.5 328.7 653.5 321.4 643.5 314.1 629.4 316.3 622.1 326.3 616.3 334.2 616.3 344.9 622.1 352.8 619.1 354.4 617.9 358 619.4 361.1 616.9 362.2 614 363.6 611.7 365ZM623.6 360.2C622.5 359.6 622.2 358.2 622.8 357.1 623.2 356.4 623.9 356 624.7 356 633.3 364 646.6 364 655.2 356 655.4 356 655.6 356 655.7 356.1 656.9 356.4 657.6 357.6 657.3 358.8 657.2 359.4 656.8 359.9 656.3 360.2 652.4 362.6 646.4 364 640 364 633.6 364 627.7 362.6 623.6 360.2L623.6 360.2ZM644.2 334 647.3 335C648.6 337.7 652 340 652.1 343.9L652.1 344.9C652.1 346.3 651.9 347.6 651.4 348.9L647 348.9C646.6 348.3 646 347.9 645.3 347.9L643.3 347.9C642.2 347.9 641.3 348.8 641.3 349.9 641.3 351 642.2 351.9 643.3 351.9L645.3 351.9C646 351.9 646.7 351.5 647 350.9L650.5 350.9C647.2 356.6 639.9 358.6 634.1 355.3 630.8 353.4 628.6 350 628.2 346.2 626.8 338.2 638.3 341.1 644.2 334ZM640 321C647.3 321 653.9 325.3 656.9 331.9 652.9 328.9 646.9 327 640 327 633.1 327 627.1 328.9 623.1 331.9 626.1 325.3 632.7 321 640 321ZM661.8 394.5 661 387.8C660.9 386.7 659.9 385.9 658.8 386.1 657.7 386.2 656.9 387.2 657.1 388.3L657.9 395C651.9 395.7 646 396 640 396 634 396 628.1 395.7 622.2 395L623 388.3C623.1 387.2 622.4 386.2 621.3 386.1 620.2 386 619.2 386.7 619.1 387.8L619.1 387.8 618.3 394.5C613.6 393.8 610.1 393.1 608.3 392.6L609.8 374.1C610 373.2 610.3 372.2 610.8 371.4L615.3 375.2 619.2 370.6 615.5 367.4C617.8 366 620.1 364.9 622.6 363.9 627.2 366.4 633.6 367.9 640.3 367.9 647.1 367.9 653.5 366.4 658.1 363.8 660.6 364.7 662.9 365.9 665.2 367.3L661.4 370.6 665.3 375.2 669.8 371.4C670.3 372.2 670.6 373.1 670.8 374.1L672.3 392.5C670 393.1 666.6 393.8 661.8 394.5Z"/><path d="M599.2 348C598.6 350.2 597.1 352 595 353 597 354 598.6 355.8 599.2 358 599.8 355.8 601.3 354 603.4 353 601.3 352 599.8 350.2 599.2 348Z"/><path d="M648 373 632 373C629.8 373 628 374.8 628 377L628 385C628 387.2 629.8 389 632 389L648 389C650.2 389 652 387.2 652 385L652 377C652 374.8 650.2 373 648 373ZM632 385 632 377 648 377 648 385 632 385Z"/><path d="M609.8 321C609.2 323.2 607.7 325 605.6 326 607.6 327 609.2 328.8 609.8 331 610.4 328.8 611.9 327 614 326 612 325 610.4 323.2 609.8 321Z"/><path d="M675.8 343.1C675.2 345.3 673.7 347.1 671.6 348.1 673.6 349.1 675.2 350.9 675.8 353.1 676.4 350.9 677.9 349.1 680 348.1 678 347.1 676.4 345.3 675.8 343.1Z"/></g></svg>